<svg xmlns="http://www.w3.org/2000/svg" version="1.1" xmlns:xlink="http://www.w3.org/1999/xlink" xmlns:svgjs="http://svgjs.dev/svgjs" width="2000" height="550" viewBox="0 0 2000 550"><g transform="matrix(1,0,0,1,-1.2121212121212466,0.2983950746929622)"><svg viewBox="0 0 396 109" data-background-color="#636365" preserveAspectRatio="xMidYMid meet" height="550" width="2000" xmlns="http://www.w3.org/2000/svg" xmlns:xlink="http://www.w3.org/1999/xlink"><defs></defs><g id="tight-bounds" transform="matrix(1,0,0,1,0.2400000000000091,-0.05913647843914305)"><svg viewBox="0 0 395.52 109.11827295687827" height="109.11827295687827" width="395.52"><g><svg viewBox="0 0 584.2356786539225 161.18221140398902" height="109.11827295687827" width="395.52"><g transform="matrix(1,0,0,1,188.7156786539225,22.276268001564333)"><svg viewBox="0 0 395.52 116.62967540086035" height="116.62967540086035" width="395.52"><g><svg viewBox="0 0 395.52 116.62967540086035" height="116.62967540086035" width="395.52"><g><svg viewBox="0 0 395.52 116.62967540086035" height="116.62967540086035" width="395.52"><g transform="matrix(1,0,0,1,0,0)"><svg width="395.52" viewBox="0.9 -37.15 127.84 37.7" height="116.62967540086035" data-palette-color="#353535"><path d="M16.05-3.1L17.2-1.1Q14.7 0.55 11.7 0.55L11.7 0.55Q8.7 0.55 7-1.23 5.3-3 5.3-6.35L5.3-6.35 5.3-23.8 0.9-23.8 0.9-26.15 5.3-26.15 5.3-32.4 8.2-32.75 8.2-26.15 14.95-26.15 14.6-23.8 8.2-23.8 8.2-6.5Q8.2-4.2 9.15-3.08 10.1-1.95 12.05-1.95L12.05-1.95Q14.05-1.95 16.05-3.1L16.05-3.1ZM31.35-26.7Q36.55-26.7 39.47-23.13 42.4-19.55 42.4-13.15L42.4-13.15Q42.4-6.8 39.42-3.13 36.45 0.55 31.3 0.55L31.3 0.55Q26.1 0.55 23.17-3.08 20.25-6.7 20.25-13.05L20.25-13.05Q20.25-17.2 21.6-20.3 22.95-23.4 25.45-25.05 27.95-26.7 31.35-26.7L31.35-26.7ZM31.35-24.25Q27.55-24.25 25.45-21.4 23.35-18.55 23.35-13.05L23.35-13.05Q23.35-7.6 25.42-4.75 27.5-1.9 31.3-1.9L31.3-1.9Q35.1-1.9 37.22-4.75 39.35-7.6 39.35-13.15L39.35-13.15Q39.35-18.6 37.27-21.43 35.2-24.25 31.35-24.25L31.35-24.25ZM66.64-37.15L69.55-36.8 69.55 0 67.05 0 66.69-4Q64 0.55 58.84 0.55L58.84 0.55Q54.3 0.55 51.67-3.08 49.05-6.7 49.05-12.95L49.05-12.95Q49.05-17 50.27-20.1 51.49-23.2 53.82-24.95 56.14-26.7 59.3-26.7L59.3-26.7Q63.75-26.7 66.64-23.15L66.64-23.15 66.64-37.15ZM59.3-1.85Q61.8-1.85 63.52-3.05 65.25-4.25 66.64-6.7L66.64-6.7 66.64-20.35Q63.84-24.3 59.8-24.3L59.8-24.3Q56.24-24.3 54.17-21.35 52.09-18.4 52.14-13L52.14-13Q52.14-7.6 54.05-4.73 55.95-1.85 59.3-1.85L59.3-1.85ZM89.14-26.7Q94.34-26.7 97.27-23.13 100.19-19.55 100.19-13.15L100.19-13.15Q100.19-6.8 97.22-3.13 94.24 0.55 89.09 0.55L89.09 0.55Q83.89 0.55 80.97-3.08 78.04-6.7 78.04-13.05L78.04-13.05Q78.04-17.2 79.39-20.3 80.74-23.4 83.24-25.05 85.74-26.7 89.14-26.7L89.14-26.7ZM89.14-24.25Q85.34-24.25 83.24-21.4 81.14-18.55 81.14-13.05L81.14-13.05Q81.14-7.6 83.22-4.75 85.29-1.9 89.09-1.9L89.09-1.9Q92.89-1.9 95.02-4.75 97.14-7.6 97.14-13.15L97.14-13.15Q97.14-18.6 95.07-21.43 92.99-24.25 89.14-24.25L89.14-24.25ZM117.69-26.7Q122.89-26.7 125.81-23.13 128.74-19.55 128.74-13.15L128.74-13.15Q128.74-6.8 125.77-3.13 122.79 0.55 117.64 0.55L117.64 0.55Q112.44 0.55 109.52-3.08 106.59-6.7 106.59-13.05L106.59-13.05Q106.59-17.2 107.94-20.3 109.29-23.4 111.79-25.05 114.29-26.7 117.69-26.7L117.69-26.7ZM117.69-24.25Q113.89-24.25 111.79-21.4 109.69-18.55 109.69-13.05L109.69-13.05Q109.69-7.6 111.77-4.75 113.84-1.9 117.64-1.9L117.64-1.9Q121.44-1.9 123.56-4.75 125.69-7.6 125.69-13.15L125.69-13.15Q125.69-18.6 123.62-21.43 121.54-24.25 117.69-24.25L117.69-24.25Z" opacity="1" transform="matrix(1,0,0,1,0,0)" fill="#353535" class="undefined-text-0" data-fill-palette-color="primary" id="text-0"></path></svg></g></svg></g></svg></g></svg></g><g><svg viewBox="0 0 161.18221140398902 161.18221140398902" height="161.18221140398902" width="161.18221140398902"><g><svg></svg></g><g id="icon-0"><svg viewBox="0 0 161.18221140398902 161.18221140398902" height="161.18221140398902" width="161.18221140398902"><g><path d="M48.355 161.182c-26.706 0-48.355-21.649-48.355-48.354v-64.473c0-26.706 21.649-48.355 48.355-48.355h64.473c26.706 0 48.355 21.649 48.354 48.355v64.473c0 26.706-21.649 48.355-48.354 48.354z" fill="#262626" data-fill-palette-color="accent"></path></g><g transform="matrix(1,0,0,1,42.704244901994514,42.704244901994514)"><svg viewBox="0 0 75.77372159999999 75.77372159999999" height="75.77372159999999" width="75.77372159999999"><g><svg xmlns="http://www.w3.org/2000/svg" xmlns:xlink="http://www.w3.org/1999/xlink" version="1.1" x="0" y="0" viewBox="0 0 60 60" enable-background="new 0 0 60 60" xml:space="preserve" height="75.77372159999999" width="75.77372159999999" class="icon-li-0" data-fill-palette-color="quaternary" id="li-0"><g fill="#636365" data-fill-palette-color="quaternary"><path fill="#636365" d="M37.54 52.33c0.14 0.4 0.52 0.67 0.94 0.67h11.39c0.44 0 0.82-0.28 0.95-0.7l3.12-9.89c0.12-0.37 0.01-0.78-0.29-1.04l-9-8.11c-0.38-0.34-0.95-0.34-1.33 0l-9 8.03c-0.3 0.27-0.41 0.69-0.28 1.08L37.54 52.33zM44 35.34l7.86 7.08L49.15 51H39.2l-3.03-8.67L44 35.34z" data-fill-palette-color="quaternary"></path><path fill="#636365" d="M59 0H1C0.45 0 0 0.45 0 1v58c0 0.55 0.45 1 1 1h58c0.55 0 1-0.45 1-1V1C60 0.45 59.55 0 59 0zM58 58H2V2h56V58z" data-fill-palette-color="quaternary"></path><path fill="#636365" d="M7 26h18c0.55 0 1-0.45 1-1V7c0-0.55-0.45-1-1-1H7C6.45 6 6 6.45 6 7v18C6 25.55 6.45 26 7 26zM8 8h16v16H8V8z" data-fill-palette-color="quaternary"></path><path fill="#636365" d="M35 26h18c0.01 0 0.01 0 0.02 0 0.55 0 1-0.45 1-1 0-0.23-0.08-0.44-0.21-0.61L44.89 6.55c-0.34-0.68-1.45-0.68-1.79 0l-9 18c-0.16 0.31-0.14 0.68 0.04 0.97C34.33 25.82 34.65 26 35 26zM44 9.24L51.38 24H36.62L44 9.24z" data-fill-palette-color="quaternary"></path><path fill="#636365" d="M16 54c5.51 0 10-4.49 10-10s-4.49-10-10-10S6 38.49 6 44 10.49 54 16 54zM16 36c4.41 0 8 3.59 8 8s-3.59 8-8 8-8-3.59-8-8S11.59 36 16 36z" data-fill-palette-color="quaternary"></path></g></svg><g></g></g></svg></g></svg></g></svg></g></svg></g></svg><rect width="395.52" height="109.11827295687827" fill="none" stroke="none" visibility="hidden"></rect></g></svg></g></svg>