<svg viewBox="0 0 24 24" xmlns="http://www.w3.org/2000/svg"><g data-name="Layer 2"><path d="M6.92 13H2.05a9.94 9.94 0 0 0 2.06 5.13A7.9 7.9 0 0 0 6.92 13ZM4.11 5.88A9.94 9.94 0 0 0 2.05 11h4.88a7.86 7.86 0 0 0-2.82-5.12ZM18.5 4.41A10 10 0 0 0 13 2.05V11h2.06a9.92 9.92 0 0 1 3.44-6.59ZM8.93 11H11V2.05a10 10 0 0 0-5.51 2.37A9.84 9.84 0 0 1 8.93 11ZM19.89 18.13A9.94 9.94 0 0 0 21.95 13h-4.87a7.9 7.9 0 0 0 2.81 5.13ZM21.95 11a9.94 9.94 0 0 0-2.06-5.12A7.9 7.9 0 0 0 17.08 11ZM15.06 13H13v8.95a10 10 0 0 0 5.5-2.36A9.92 9.92 0 0 1 15.06 13ZM5.5 19.59a10 10 0 0 0 5.5 2.36V13H8.94a9.92 9.92 0 0 1-3.44 6.59Z" fill="#ffffff" class="fill-000000"></path></g></svg>