<svg viewBox="0 0 512 512" xmlns="http://www.w3.org/2000/svg"><path d="M453.143 68.009a38.067 38.067 0 0 0-57.947-4.885l-75.808 75.81-198.136-58.278a17.069 17.069 0 0 0-16.891 4.307L82.5 106.821a17.076 17.076 0 0 0 2.85 26.445l146.003 93.701-13.319 13.32a283.67 283.67 0 0 0-31.966 38.36L85.139 267.88a17.159 17.159 0 0 0-13.95 4.93L57.2 286.798a17.157 17.157 0 0 0 2.864 26.57l84.476 54.212 54.295 84.602a17.035 17.035 0 0 0 26.38 2.846l14.136-14.136a17.037 17.037 0 0 0 4.893-13.853l-10.77-100.987a283.5 283.5 0 0 0 38.358-31.967l13.319-13.318L378.76 426.62a17.217 17.217 0 0 0 26.663 2.876l21.675-21.676a17.218 17.218 0 0 0 4.343-17.033l-58.254-198.053 74.37-74.372c13.4-13.401 16.662-34.976 5.586-50.353Z" fill="#ffffff" class="fill-000000"></path></svg>